<mxfile host="app.diagrams.net" agent="Mozilla/5.0 (Windows NT 10.0; Win64; x64) AppleWebKit/537.36 (KHTML, like Gecko) Chrome/133.0.0.0 Safari/537.36 Edg/133.0.0.0" version="26.0.16">
  <diagram id="6a731a19-8d31-9384-78a2-239565b7b9f0" name="Page-1">
    <mxGraphModel dx="983" dy="685" grid="1" gridSize="10" guides="1" tooltips="1" connect="1" arrows="1" fold="1" page="1" pageScale="1" pageWidth="1169" pageHeight="827" background="none" math="0" shadow="0">
      <root>
        <mxCell id="0" />
        <mxCell id="1" parent="0" />
        <mxCell id="2" value="start" style="shape=mxgraph.flowchart.terminator;strokeWidth=2;gradientColor=none;gradientDirection=north;fontStyle=0;html=1;" parent="1" vertex="1">
          <mxGeometry x="260" y="60" width="120" height="30" as="geometry" />
        </mxCell>
        <mxCell id="3" value="Registration" style="shape=mxgraph.flowchart.data;strokeWidth=2;gradientColor=none;gradientDirection=north;fontStyle=0;html=1;" parent="1" vertex="1">
          <mxGeometry x="240.5" y="130" width="159" height="80" as="geometry" />
        </mxCell>
        <mxCell id="4" value="Home page" style="shape=mxgraph.flowchart.data;strokeWidth=2;gradientColor=none;gradientDirection=north;fontStyle=0;html=1;" parent="1" vertex="1">
          <mxGeometry x="240.5" y="510" width="159" height="80" as="geometry" />
        </mxCell>
        <mxCell id="5" value="Login" style="shape=mxgraph.flowchart.data;strokeWidth=2;gradientColor=none;gradientDirection=north;fontStyle=0;html=1;" parent="1" vertex="1">
          <mxGeometry x="240.5" y="250" width="159" height="80" as="geometry" />
        </mxCell>
        <mxCell id="6" value="Verified" style="shape=mxgraph.flowchart.decision;strokeWidth=2;gradientColor=none;gradientDirection=north;fontStyle=0;html=1;" parent="1" vertex="1">
          <mxGeometry x="271" y="390" width="98" height="57" as="geometry" />
        </mxCell>
        <mxCell id="7" style="fontStyle=1;strokeColor=#003366;strokeWidth=1;html=1;" parent="1" source="2" target="3" edge="1">
          <mxGeometry relative="1" as="geometry" />
        </mxCell>
        <mxCell id="8" style="fontStyle=1;strokeColor=#003366;strokeWidth=1;html=1;" parent="1" source="3" target="5" edge="1">
          <mxGeometry relative="1" as="geometry" />
        </mxCell>
        <mxCell id="9" style="entryX=0.5;entryY=0;entryPerimeter=0;fontStyle=1;strokeColor=#003366;strokeWidth=1;html=1;" parent="1" source="5" target="6" edge="1">
          <mxGeometry relative="1" as="geometry" />
        </mxCell>
        <mxCell id="10" value="" style="edgeStyle=elbowEdgeStyle;elbow=horizontal;exitX=1;exitY=0.5;exitPerimeter=0;fontStyle=1;strokeColor=#003366;strokeWidth=1;html=1;entryX=0.905;entryY=0.5;entryDx=0;entryDy=0;entryPerimeter=0;" parent="1" source="6" target="5" edge="1">
          <mxGeometry x="381" y="28.5" width="100" height="100" as="geometry">
            <mxPoint x="750" y="447" as="sourcePoint" />
            <mxPoint x="545" y="280" as="targetPoint" />
            <Array as="points">
              <mxPoint x="545" y="400" />
            </Array>
          </mxGeometry>
        </mxCell>
        <mxCell id="11" value="no" style="text;fontStyle=0;html=1;strokeColor=none;gradientColor=none;fillColor=none;strokeWidth=2;" parent="1" vertex="1">
          <mxGeometry x="370" y="390" width="40" height="26" as="geometry" />
        </mxCell>
        <mxCell id="12" value="" style="edgeStyle=elbowEdgeStyle;elbow=horizontal;fontColor=#001933;fontStyle=1;strokeColor=#003366;strokeWidth=1;html=1;" parent="1" source="6" target="4" edge="1">
          <mxGeometry width="100" height="100" as="geometry">
            <mxPoint y="100" as="sourcePoint" />
            <mxPoint x="100" as="targetPoint" />
          </mxGeometry>
        </mxCell>
        <mxCell id="14" value="yes" style="text;fontStyle=0;html=1;strokeColor=none;gradientColor=none;fillColor=none;strokeWidth=2;align=center;" parent="1" vertex="1">
          <mxGeometry x="320" y="447" width="40" height="26" as="geometry" />
        </mxCell>
        <mxCell id="17" value="" style="edgeStyle=elbowEdgeStyle;elbow=horizontal;fontStyle=1;strokeColor=#003366;strokeWidth=1;html=1;" parent="1" source="4" edge="1">
          <mxGeometry width="100" height="100" as="geometry">
            <mxPoint y="100" as="sourcePoint" />
            <mxPoint x="325" y="670" as="targetPoint" />
          </mxGeometry>
        </mxCell>
        <mxCell id="18" value="Seller&#39;s Homepage" style="shape=mxgraph.flowchart.predefined_process;strokeWidth=2;gradientColor=none;gradientDirection=north;fontStyle=0;html=1;" parent="1" vertex="1">
          <mxGeometry x="480" y="635" width="190" height="90" as="geometry" />
        </mxCell>
        <mxCell id="19" value="" style="edgeStyle=elbowEdgeStyle;elbow=horizontal;exitX=1;exitY=0.5;fontStyle=1;strokeColor=#003366;strokeWidth=1;html=1;exitDx=0;exitDy=0;" parent="1" source="a-PgdZSBIUB6m4_FpvGz-55" target="18" edge="1">
          <mxGeometry width="100" height="100" as="geometry">
            <mxPoint x="394.895" y="740" as="sourcePoint" />
            <mxPoint x="100" as="targetPoint" />
            <Array as="points">
              <mxPoint x="400" y="740" />
            </Array>
          </mxGeometry>
        </mxCell>
        <mxCell id="20" value="Buyer&#39;s home page" style="shape=mxgraph.flowchart.manual_input;strokeWidth=2;gradientColor=none;gradientDirection=north;fontStyle=0;html=1;" parent="1" vertex="1">
          <mxGeometry x="242" y="780" width="158" height="80" as="geometry" />
        </mxCell>
        <mxCell id="21" value="" style="edgeStyle=elbowEdgeStyle;elbow=horizontal;fontStyle=1;strokeColor=#003366;strokeWidth=1;html=1;exitX=0.5;exitY=1;exitDx=0;exitDy=0;" parent="1" source="a-PgdZSBIUB6m4_FpvGz-55" edge="1">
          <mxGeometry width="100" height="100" as="geometry">
            <mxPoint x="321" y="780" as="sourcePoint" />
            <mxPoint x="321" y="790" as="targetPoint" />
          </mxGeometry>
        </mxCell>
        <mxCell id="22" value="Search Product" style="shape=mxgraph.flowchart.document;strokeWidth=2;gradientColor=none;gradientDirection=north;fontStyle=0;html=1;" parent="1" vertex="1">
          <mxGeometry x="240.5" y="920" width="159" height="90" as="geometry" />
        </mxCell>
        <mxCell id="23" value="" style="edgeStyle=elbowEdgeStyle;elbow=horizontal;exitX=0.5;exitY=1;exitPerimeter=0;fontStyle=1;strokeColor=#003366;strokeWidth=1;html=1;" parent="1" source="20" target="22" edge="1">
          <mxGeometry width="100" height="100" as="geometry">
            <mxPoint y="100" as="sourcePoint" />
            <mxPoint x="100" as="targetPoint" />
          </mxGeometry>
        </mxCell>
        <mxCell id="24" value="Available" style="shape=mxgraph.flowchart.decision;strokeWidth=2;gradientColor=none;gradientDirection=north;fontStyle=0;html=1;" parent="1" vertex="1">
          <mxGeometry x="261.5" y="1080" width="119" height="78.5" as="geometry" />
        </mxCell>
        <mxCell id="25" value="" style="edgeStyle=elbowEdgeStyle;elbow=horizontal;exitX=0.5;exitY=0.9;exitPerimeter=0;fontStyle=1;strokeColor=#003366;strokeWidth=1;html=1;" parent="1" source="22" target="24" edge="1">
          <mxGeometry width="100" height="100" as="geometry">
            <mxPoint y="100" as="sourcePoint" />
            <mxPoint x="100" as="targetPoint" />
          </mxGeometry>
        </mxCell>
        <mxCell id="27" value="yes" style="text;fontStyle=0;html=1;strokeColor=none;gradientColor=none;fillColor=none;strokeWidth=2;" parent="1" vertex="1">
          <mxGeometry x="280" y="1158.5" width="40" height="26" as="geometry" />
        </mxCell>
        <mxCell id="30" value="" style="edgeStyle=elbowEdgeStyle;elbow=horizontal;exitX=0.5;exitY=1;exitPerimeter=0;fontStyle=1;strokeColor=#003366;strokeWidth=1;html=1;entryX=0.5;entryY=0;entryDx=0;entryDy=0;" parent="1" source="a-PgdZSBIUB6m4_FpvGz-60" target="a-PgdZSBIUB6m4_FpvGz-63" edge="1">
          <mxGeometry width="100" height="100" as="geometry">
            <mxPoint y="100" as="sourcePoint" />
            <mxPoint x="325" y="1300" as="targetPoint" />
            <Array as="points">
              <mxPoint x="320" y="1310" />
            </Array>
          </mxGeometry>
        </mxCell>
        <mxCell id="a-PgdZSBIUB6m4_FpvGz-62" value="yes" style="edgeLabel;html=1;align=center;verticalAlign=middle;resizable=0;points=[];" vertex="1" connectable="0" parent="30">
          <mxGeometry relative="1" as="geometry">
            <mxPoint x="10" as="offset" />
          </mxGeometry>
        </mxCell>
        <mxCell id="34" value="Payment method" style="shape=mxgraph.flowchart.data;strokeWidth=2;gradientColor=none;gradientDirection=north;fontStyle=0;html=1;" parent="1" vertex="1">
          <mxGeometry x="240.5" y="1490" width="159" height="80" as="geometry" />
        </mxCell>
        <mxCell id="37" value="Available?" style="shape=mxgraph.flowchart.decision;strokeWidth=2;gradientColor=none;gradientDirection=north;fontStyle=0;html=1;" parent="1" vertex="1">
          <mxGeometry x="271" y="1621.5" width="98" height="57" as="geometry" />
        </mxCell>
        <mxCell id="38" value="Payment" style="shape=mxgraph.flowchart.data;strokeWidth=2;gradientColor=none;gradientDirection=north;fontStyle=0;html=1;" parent="1" vertex="1">
          <mxGeometry x="240.5" y="1730" width="159" height="80" as="geometry" />
        </mxCell>
        <mxCell id="40" value="end" style="shape=mxgraph.flowchart.terminator;strokeWidth=2;gradientColor=none;gradientDirection=north;fontStyle=0;html=1;" parent="1" vertex="1">
          <mxGeometry x="260" y="2030" width="120" height="30" as="geometry" />
        </mxCell>
        <mxCell id="41" value="" style="edgeStyle=elbowEdgeStyle;elbow=vertical;exitX=0.5;exitY=1;exitPerimeter=0;entryX=0.5;entryY=0;entryPerimeter=0;fontStyle=1;strokeColor=#003366;strokeWidth=1;html=1;" parent="1" source="34" target="37" edge="1">
          <mxGeometry width="100" height="100" as="geometry">
            <mxPoint y="100" as="sourcePoint" />
            <mxPoint x="100" as="targetPoint" />
          </mxGeometry>
        </mxCell>
        <mxCell id="42" value="" style="edgeStyle=elbowEdgeStyle;elbow=vertical;exitX=0.5;exitY=1;exitPerimeter=0;entryX=0.5;entryY=0;entryPerimeter=0;fontStyle=1;strokeColor=#003366;strokeWidth=1;html=1;" parent="1" source="37" target="38" edge="1">
          <mxGeometry width="100" height="100" as="geometry">
            <mxPoint y="100" as="sourcePoint" />
            <mxPoint x="100" as="targetPoint" />
          </mxGeometry>
        </mxCell>
        <mxCell id="43" value="" style="edgeStyle=elbowEdgeStyle;elbow=vertical;exitX=0.5;exitY=1;exitPerimeter=0;entryX=0.5;entryY=0;entryPerimeter=0;fontStyle=1;strokeColor=#003366;strokeWidth=1;html=1;" parent="1" source="a-PgdZSBIUB6m4_FpvGz-71" target="40" edge="1">
          <mxGeometry width="100" height="100" as="geometry">
            <mxPoint y="100" as="sourcePoint" />
            <mxPoint x="100" as="targetPoint" />
          </mxGeometry>
        </mxCell>
        <mxCell id="a-PgdZSBIUB6m4_FpvGz-57" value="" style="edgeStyle=orthogonalEdgeStyle;rounded=0;orthogonalLoop=1;jettySize=auto;html=1;exitX=1;exitY=0.5;exitDx=0;exitDy=0;exitPerimeter=0;" edge="1" parent="1" source="24" target="a-PgdZSBIUB6m4_FpvGz-56">
          <mxGeometry relative="1" as="geometry" />
        </mxCell>
        <mxCell id="46" value="no" style="text;fontStyle=0;html=1;strokeColor=none;gradientColor=none;fillColor=none;strokeWidth=2;" parent="1" vertex="1">
          <mxGeometry x="380.5" y="1093.25" width="39.5" height="26" as="geometry" />
        </mxCell>
        <mxCell id="53" value="yes" style="text;fontStyle=0;html=1;strokeColor=none;gradientColor=none;fillColor=none;strokeWidth=2;align=center;" parent="1" vertex="1">
          <mxGeometry x="321" y="1680" width="40" height="26" as="geometry" />
        </mxCell>
        <mxCell id="55" value="no" style="text;fontStyle=0;html=1;strokeColor=none;gradientColor=none;fillColor=none;strokeWidth=2;" parent="1" vertex="1">
          <mxGeometry x="235" y="1624" width="40" height="26" as="geometry" />
        </mxCell>
        <mxCell id="a-PgdZSBIUB6m4_FpvGz-55" value="Buyer/Seller?" style="rhombus;whiteSpace=wrap;html=1;" vertex="1" parent="1">
          <mxGeometry x="281" y="670" width="89" height="80" as="geometry" />
        </mxCell>
        <mxCell id="a-PgdZSBIUB6m4_FpvGz-56" value="Display" style="whiteSpace=wrap;html=1;" vertex="1" parent="1">
          <mxGeometry x="480" y="1089.25" width="120" height="60" as="geometry" />
        </mxCell>
        <mxCell id="a-PgdZSBIUB6m4_FpvGz-59" value="" style="endArrow=classic;html=1;rounded=0;exitX=0.5;exitY=0;exitDx=0;exitDy=0;entryX=1;entryY=0.5;entryDx=0;entryDy=0;entryPerimeter=0;" edge="1" parent="1" source="a-PgdZSBIUB6m4_FpvGz-56" target="22">
          <mxGeometry width="50" height="50" relative="1" as="geometry">
            <mxPoint x="390" y="1050" as="sourcePoint" />
            <mxPoint x="440" y="1000" as="targetPoint" />
            <Array as="points">
              <mxPoint x="540" y="965" />
            </Array>
          </mxGeometry>
        </mxCell>
        <mxCell id="a-PgdZSBIUB6m4_FpvGz-61" value="" style="edgeStyle=elbowEdgeStyle;elbow=horizontal;exitX=0.5;exitY=1;exitPerimeter=0;fontStyle=1;strokeColor=#003366;strokeWidth=1;html=1;" edge="1" parent="1" source="24" target="a-PgdZSBIUB6m4_FpvGz-60">
          <mxGeometry width="100" height="100" as="geometry">
            <mxPoint x="321" y="1158" as="sourcePoint" />
            <mxPoint x="321" y="1310" as="targetPoint" />
          </mxGeometry>
        </mxCell>
        <mxCell id="a-PgdZSBIUB6m4_FpvGz-60" value="3D display" style="rounded=0;whiteSpace=wrap;html=1;" vertex="1" parent="1">
          <mxGeometry x="261.5" y="1200" width="128.5" height="60" as="geometry" />
        </mxCell>
        <mxCell id="a-PgdZSBIUB6m4_FpvGz-64" style="edgeStyle=orthogonalEdgeStyle;rounded=0;orthogonalLoop=1;jettySize=auto;html=1;exitX=0.5;exitY=1;exitDx=0;exitDy=0;" edge="1" parent="1" source="a-PgdZSBIUB6m4_FpvGz-63">
          <mxGeometry relative="1" as="geometry">
            <mxPoint x="319.5" y="1410" as="targetPoint" />
          </mxGeometry>
        </mxCell>
        <mxCell id="a-PgdZSBIUB6m4_FpvGz-63" value="Add to cart" style="rhombus;whiteSpace=wrap;html=1;" vertex="1" parent="1">
          <mxGeometry x="280" y="1310" width="80" height="100" as="geometry" />
        </mxCell>
        <mxCell id="a-PgdZSBIUB6m4_FpvGz-65" style="edgeStyle=orthogonalEdgeStyle;rounded=0;orthogonalLoop=1;jettySize=auto;html=1;exitX=0.5;exitY=1;exitDx=0;exitDy=0;entryX=0.5;entryY=0;entryDx=0;entryDy=0;entryPerimeter=0;" edge="1" parent="1" source="a-PgdZSBIUB6m4_FpvGz-63" target="34">
          <mxGeometry relative="1" as="geometry" />
        </mxCell>
        <mxCell id="a-PgdZSBIUB6m4_FpvGz-66" value="" style="endArrow=classic;html=1;rounded=0;exitX=0.579;exitY=1.103;exitDx=0;exitDy=0;exitPerimeter=0;" edge="1" parent="1" source="a-PgdZSBIUB6m4_FpvGz-56">
          <mxGeometry width="50" height="50" relative="1" as="geometry">
            <mxPoint x="330" y="1090" as="sourcePoint" />
            <mxPoint x="400" y="1240" as="targetPoint" />
            <Array as="points">
              <mxPoint x="549" y="1240" />
            </Array>
          </mxGeometry>
        </mxCell>
        <mxCell id="a-PgdZSBIUB6m4_FpvGz-67" value="" style="endArrow=classic;html=1;rounded=0;exitX=1;exitY=1;exitDx=0;exitDy=0;entryX=0.095;entryY=0.5;entryDx=0;entryDy=0;entryPerimeter=0;" edge="1" parent="1" source="55" target="34">
          <mxGeometry width="50" height="50" relative="1" as="geometry">
            <mxPoint x="210" y="1670" as="sourcePoint" />
            <mxPoint x="250" y="1480" as="targetPoint" />
            <Array as="points">
              <mxPoint x="180" y="1650" />
              <mxPoint x="180" y="1530" />
            </Array>
          </mxGeometry>
        </mxCell>
        <mxCell id="a-PgdZSBIUB6m4_FpvGz-69" value="" style="edgeStyle=elbowEdgeStyle;elbow=vertical;exitX=0.5;exitY=1;exitPerimeter=0;entryX=0.5;entryY=0;entryPerimeter=0;fontStyle=1;strokeColor=#003366;strokeWidth=1;html=1;" edge="1" parent="1" source="38" target="a-PgdZSBIUB6m4_FpvGz-68">
          <mxGeometry width="100" height="100" as="geometry">
            <mxPoint x="320" y="1810" as="sourcePoint" />
            <mxPoint x="320" y="1910" as="targetPoint" />
          </mxGeometry>
        </mxCell>
        <mxCell id="a-PgdZSBIUB6m4_FpvGz-68" value="Completed?" style="rhombus;whiteSpace=wrap;html=1;" vertex="1" parent="1">
          <mxGeometry x="281" y="1830" width="80" height="80" as="geometry" />
        </mxCell>
        <mxCell id="a-PgdZSBIUB6m4_FpvGz-70" value="" style="edgeStyle=elbowEdgeStyle;elbow=vertical;exitX=0.5;exitY=1;exitPerimeter=0;entryX=0.5;entryY=0;entryPerimeter=0;fontStyle=1;strokeColor=#003366;strokeWidth=1;html=1;" edge="1" parent="1" source="a-PgdZSBIUB6m4_FpvGz-68" target="a-PgdZSBIUB6m4_FpvGz-71">
          <mxGeometry width="100" height="100" as="geometry">
            <mxPoint x="321" y="1910" as="sourcePoint" />
            <mxPoint x="320" y="2030" as="targetPoint" />
          </mxGeometry>
        </mxCell>
        <mxCell id="a-PgdZSBIUB6m4_FpvGz-71" value="Assign Delivery" style="rounded=0;whiteSpace=wrap;html=1;" vertex="1" parent="1">
          <mxGeometry x="261" y="1930" width="120" height="60" as="geometry" />
        </mxCell>
        <mxCell id="a-PgdZSBIUB6m4_FpvGz-72" value="" style="endArrow=classic;html=1;rounded=0;exitX=1;exitY=0.5;exitDx=0;exitDy=0;" edge="1" parent="1" source="a-PgdZSBIUB6m4_FpvGz-68">
          <mxGeometry width="50" height="50" relative="1" as="geometry">
            <mxPoint x="330" y="1810" as="sourcePoint" />
            <mxPoint x="380" y="1760" as="targetPoint" />
            <Array as="points">
              <mxPoint x="450" y="1870" />
              <mxPoint x="450" y="1760" />
            </Array>
          </mxGeometry>
        </mxCell>
        <mxCell id="a-PgdZSBIUB6m4_FpvGz-73" value="yes" style="text;html=1;align=center;verticalAlign=middle;resizable=0;points=[];autosize=1;strokeColor=none;fillColor=none;" vertex="1" parent="1">
          <mxGeometry x="320" y="1898" width="40" height="30" as="geometry" />
        </mxCell>
        <mxCell id="a-PgdZSBIUB6m4_FpvGz-74" value="no" style="text;html=1;align=center;verticalAlign=middle;resizable=0;points=[];autosize=1;strokeColor=none;fillColor=none;" vertex="1" parent="1">
          <mxGeometry x="360" y="1838" width="40" height="30" as="geometry" />
        </mxCell>
        <mxCell id="a-PgdZSBIUB6m4_FpvGz-75" value="" style="rounded=1;whiteSpace=wrap;html=1;" vertex="1" parent="1">
          <mxGeometry x="515" y="790" width="120" height="60" as="geometry" />
        </mxCell>
        <mxCell id="a-PgdZSBIUB6m4_FpvGz-76" value="" style="rounded=1;whiteSpace=wrap;html=1;" vertex="1" parent="1">
          <mxGeometry x="525" y="530" width="120" height="50" as="geometry" />
        </mxCell>
        <mxCell id="a-PgdZSBIUB6m4_FpvGz-77" value="" style="endArrow=classic;html=1;rounded=0;exitX=0.5;exitY=1;exitDx=0;exitDy=0;exitPerimeter=0;entryX=0.5;entryY=0;entryDx=0;entryDy=0;" edge="1" parent="1" source="18" target="a-PgdZSBIUB6m4_FpvGz-75">
          <mxGeometry width="50" height="50" relative="1" as="geometry">
            <mxPoint x="220" y="710" as="sourcePoint" />
            <mxPoint x="270" y="660" as="targetPoint" />
          </mxGeometry>
        </mxCell>
        <mxCell id="a-PgdZSBIUB6m4_FpvGz-78" value="" style="endArrow=classic;html=1;rounded=0;exitX=0.5;exitY=0;exitDx=0;exitDy=0;exitPerimeter=0;entryX=0.433;entryY=1.075;entryDx=0;entryDy=0;entryPerimeter=0;" edge="1" parent="1" source="18" target="a-PgdZSBIUB6m4_FpvGz-76">
          <mxGeometry width="50" height="50" relative="1" as="geometry">
            <mxPoint x="220" y="710" as="sourcePoint" />
            <mxPoint x="270" y="660" as="targetPoint" />
          </mxGeometry>
        </mxCell>
        <mxCell id="a-PgdZSBIUB6m4_FpvGz-79" value="Review" style="rounded=1;whiteSpace=wrap;html=1;" vertex="1" parent="1">
          <mxGeometry x="90" y="700" width="120" height="60" as="geometry" />
        </mxCell>
        <mxCell id="a-PgdZSBIUB6m4_FpvGz-80" value="Contact" style="rounded=1;whiteSpace=wrap;html=1;" vertex="1" parent="1">
          <mxGeometry x="80" y="910" width="120" height="60" as="geometry" />
        </mxCell>
        <mxCell id="a-PgdZSBIUB6m4_FpvGz-81" value="About us" style="rounded=1;whiteSpace=wrap;html=1;" vertex="1" parent="1">
          <mxGeometry x="80" y="790" width="120" height="60" as="geometry" />
        </mxCell>
        <mxCell id="a-PgdZSBIUB6m4_FpvGz-82" value="" style="endArrow=classic;html=1;rounded=0;entryX=1;entryY=0.5;entryDx=0;entryDy=0;" edge="1" parent="1" target="a-PgdZSBIUB6m4_FpvGz-80">
          <mxGeometry width="50" height="50" relative="1" as="geometry">
            <mxPoint x="300" y="860" as="sourcePoint" />
            <mxPoint x="300" y="850" as="targetPoint" />
          </mxGeometry>
        </mxCell>
        <mxCell id="a-PgdZSBIUB6m4_FpvGz-83" value="" style="endArrow=classic;html=1;rounded=0;entryX=1;entryY=0.75;entryDx=0;entryDy=0;" edge="1" parent="1" target="a-PgdZSBIUB6m4_FpvGz-81">
          <mxGeometry width="50" height="50" relative="1" as="geometry">
            <mxPoint x="240" y="835" as="sourcePoint" />
            <mxPoint x="300" y="850" as="targetPoint" />
          </mxGeometry>
        </mxCell>
        <mxCell id="a-PgdZSBIUB6m4_FpvGz-86" value="" style="endArrow=classic;html=1;rounded=0;entryX=1;entryY=0.5;entryDx=0;entryDy=0;exitX=0.227;exitY=0.318;exitDx=0;exitDy=0;exitPerimeter=0;" edge="1" parent="1" source="20" target="a-PgdZSBIUB6m4_FpvGz-79">
          <mxGeometry width="50" height="50" relative="1" as="geometry">
            <mxPoint x="260" y="800" as="sourcePoint" />
            <mxPoint x="300" y="850" as="targetPoint" />
          </mxGeometry>
        </mxCell>
      </root>
    </mxGraphModel>
  </diagram>
</mxfile>
